<svg width="274" height="148" viewBox="0 0 274 148" fill="none" xmlns="http://www.w3.org/2000/svg">
<path fill-rule="evenodd" clip-rule="evenodd" d="M109.118 109.17C111.562 109.162 113.904 108.188 115.632 106.46C117.36 104.732 118.334 102.39 118.342 99.946V50.227C118.335 47.7823 117.361 45.4396 115.633 43.7105C113.905 41.9813 111.563 41.0062 109.118 40.998C106.673 41.0054 104.33 41.9803 102.602 43.7096C100.874 45.4389 99.9001 47.7821 99.894 50.227V99.946C99.902 102.39 100.876 104.732 102.604 106.46C104.333 108.188 106.674 109.162 109.118 109.17Z" fill="#ED1B25"/>
<path fill-rule="evenodd" clip-rule="evenodd" d="M127.568 124.148C130.013 124.142 132.356 123.169 134.085 121.44C135.814 119.712 136.788 117.369 136.794 114.924V37.49C136.787 35.0449 135.813 32.7019 134.084 30.9727C132.356 29.2435 130.013 28.2686 127.568 28.261C125.123 28.2686 122.781 29.2436 121.052 30.9729C119.324 32.7021 118.35 35.0451 118.344 37.49V114.924C118.35 117.368 119.324 119.711 121.053 121.439C122.781 123.168 125.124 124.142 127.568 124.148Z" fill="#FABA1C"/>
<path fill-rule="evenodd" clip-rule="evenodd" d="M146.019 117.781C148.464 117.774 150.806 116.8 152.534 115.071C154.263 113.342 155.236 111 155.243 108.555V32.62C155.237 30.1753 154.264 27.8323 152.535 26.1034C150.807 24.3745 148.464 23.4004 146.019 23.394C143.574 23.4004 141.232 24.3745 139.503 26.1034C137.774 27.8323 136.801 30.1753 136.795 32.62V108.554C136.802 110.999 137.775 113.341 139.504 115.07C141.232 116.799 143.575 117.773 146.019 117.78V117.781Z" fill="#068ED4"/>
<path fill-rule="evenodd" clip-rule="evenodd" d="M164.471 112.914C166.916 112.907 169.258 111.932 170.986 110.202C172.714 108.473 173.688 106.13 173.693 103.685V44.2311C173.688 41.7868 172.714 39.4441 170.986 37.7156C169.258 35.987 166.915 35.0132 164.471 35.0071C162.026 35.0129 159.683 35.9865 157.954 37.715C156.226 39.4435 155.251 41.7863 155.245 44.2311V103.686C155.252 106.131 156.226 108.474 157.954 110.204C159.683 111.933 162.026 112.908 164.471 112.915V112.914Z" fill="#009E4F"/>
<path fill-rule="evenodd" clip-rule="evenodd" d="M118.108 46.728C90.357 65.358 103.678 108.548 136.819 108.548C169.936 108.548 183.295 65.389 155.525 46.728C149.982 43.0408 143.474 41.0737 136.817 41.0737C130.159 41.0737 123.651 43.0408 118.108 46.728Z" fill="#FEFEFE"/>
<path fill-rule="evenodd" clip-rule="evenodd" d="M122.675 53.582C101.7 67.667 111.768 100.309 136.819 100.309C161.853 100.309 171.95 67.687 150.962 53.582C146.771 50.7953 141.85 49.3086 136.818 49.3086C131.785 49.3086 126.864 50.7953 122.673 53.582H122.675Z" fill="#D5D5D7"/>
<path fill-rule="evenodd" clip-rule="evenodd" d="M125.536 57.8699C108.798 69.1079 116.836 95.1529 136.819 95.1529C156.802 95.1529 164.847 69.1269 148.102 57.8699C144.759 55.6464 140.834 54.4602 136.819 54.4602C132.804 54.4602 128.879 55.6464 125.536 57.8699Z" fill="#5F5F5F"/>
<path fill-rule="evenodd" clip-rule="evenodd" d="M126.862 59.864C112.092 69.777 119.183 92.7639 136.818 92.7639C154.453 92.7639 161.548 69.799 146.774 59.864C143.824 57.9035 140.36 56.8577 136.818 56.8577C133.276 56.8577 129.812 57.9035 126.862 59.864Z" fill="#434443"/>
<path fill-rule="evenodd" clip-rule="evenodd" d="M131.292 66.522C123.101 72.022 127.033 84.7711 136.816 84.7711C146.599 84.7711 150.533 72.029 142.338 66.522C140.702 65.4332 138.78 64.8523 136.815 64.8523C134.85 64.8523 132.928 65.4332 131.292 66.522Z" fill="#22201E"/>
<path fill-rule="evenodd" clip-rule="evenodd" d="M130.533 71.458C129.691 70.8979 129.052 70.0818 128.71 69.1303C128.369 68.1789 128.342 67.1427 128.635 66.175C128.927 65.2073 129.523 64.3595 130.335 63.7568C131.147 63.1542 132.131 62.8289 133.142 62.8289C134.153 62.8289 135.137 63.1542 135.949 63.7568C136.761 64.3595 137.357 65.2073 137.649 66.175C137.942 67.1427 137.915 68.1789 137.574 69.1303C137.232 70.0818 136.593 70.8979 135.751 71.458C134.978 71.9717 134.07 72.2456 133.142 72.2456C132.214 72.2456 131.306 71.9717 130.533 71.458Z" fill="#BABCBE"/>
<path fill-rule="evenodd" clip-rule="evenodd" d="M141.276 84.6519C140.862 84.376 140.548 83.9744 140.38 83.5063C140.213 83.0382 140.2 82.5286 140.344 82.0527C140.488 81.5768 140.781 81.1598 141.181 80.8635C141.58 80.5672 142.064 80.4072 142.562 80.4072C143.059 80.4072 143.543 80.5672 143.942 80.8635C144.341 81.1598 144.635 81.5768 144.779 82.0527C144.923 82.5286 144.91 83.0382 144.743 83.5063C144.575 83.9744 144.261 84.376 143.847 84.6519C143.466 84.9053 143.019 85.0404 142.562 85.0404C142.104 85.0404 141.657 84.9053 141.276 84.6519Z" fill="#FEFEFE"/>
<path opacity="0.1" d="M273.587 94.759C273.606 87.8557 271.964 81.0491 268.8 74.9133C265.636 68.7775 261.044 63.4925 255.409 59.504C255.565 58.0127 255.645 56.5144 255.648 55.015C255.648 31.306 236.698 12.085 213.319 12.085C206.12 12.0772 199.042 13.9342 192.774 17.475C176.227 6.589 154.625 0 130.992 0C92.5391 0 59.4631 17.446 44.7921 42.461C43.9771 42.413 43.1561 42.387 42.3291 42.387C18.9551 42.387 8.85339e-05 61.607 8.85339e-05 85.317C-0.0168724 93.6929 2.40349 101.893 6.96609 108.917C6.96609 130.249 27.1001 147.539 51.9261 147.539H232.032C251.532 147.539 267.34 133.963 267.34 117.213C271.443 110.443 273.604 102.675 273.587 94.759Z" fill="white"/>
</svg>
